<svg width="79" height="32" viewBox="0 0 79 32" fill="none" xmlns="http://www.w3.org/2000/svg">
<path d="M11.84 1.08C13.3067 1.08 14.6533 1.28 15.88 1.68C17.1333 2.05333 18.2133 2.62667 19.12 3.4C20.0533 4.14667 20.7733 5.08 21.28 6.2C21.8133 7.29333 22.08 8.57333 22.08 10.04C22.08 11.1867 21.9067 12.3067 21.56 13.4C21.24 14.4933 20.6933 15.4933 19.92 16.4C19.1467 17.28 18.1333 18 16.88 18.56C15.6533 19.0933 14.1333 19.36 12.32 19.36H8.04V30H4.16V1.08H11.84ZM12.24 15.64C13.3867 15.64 14.3333 15.4667 15.08 15.12C15.8533 14.7733 16.4533 14.3333 16.88 13.8C17.3067 13.24 17.6133 12.64 17.8 12C17.9867 11.36 18.08 10.76 18.08 10.2C18.08 9.61333 17.9733 9.01333 17.76 8.4C17.5733 7.76 17.2533 7.17333 16.8 6.64C16.3733 6.10667 15.8 5.66667 15.08 5.32C14.3867 4.97333 13.5333 4.8 12.52 4.8H8.04V15.64H12.24ZM17 17.84L24.56 30H20.08L12.4 17.96L17 17.84ZM32.7794 30.4C30.886 30.4 29.2594 30.0267 27.8994 29.28C26.5394 28.5067 25.486 27.4667 24.7394 26.16C24.0194 24.8267 23.6594 23.3067 23.6594 21.6C23.6594 19.9733 24.0727 18.4933 24.8994 17.16C25.726 15.8267 26.8327 14.76 28.2194 13.96C29.606 13.16 31.1527 12.76 32.8594 12.76C35.046 12.76 36.8594 13.4 38.2994 14.68C39.7394 15.96 40.7127 17.72 41.2194 19.96L27.5794 24.76L26.6994 22.56L37.8994 18.48L37.0994 19C36.7794 18.12 36.246 17.36 35.4994 16.72C34.7527 16.0533 33.7794 15.72 32.5794 15.72C31.566 15.72 30.6594 15.9733 29.8594 16.48C29.0594 16.96 28.4327 17.6267 27.9794 18.48C27.526 19.3333 27.2994 20.3067 27.2994 21.4C27.2994 22.5467 27.5394 23.56 28.0194 24.44C28.4994 25.2933 29.1527 25.9733 29.9794 26.48C30.8327 26.96 31.7927 27.2 32.8594 27.2C33.5794 27.2 34.2727 27.0667 34.9394 26.8C35.6327 26.5333 36.2727 26.1867 36.8594 25.76L38.5794 28.52C37.7527 29.08 36.8194 29.5333 35.7794 29.88C34.766 30.2267 33.766 30.4 32.7794 30.4ZM45.2006 13.44L45.5206 17.48L45.3606 16.84C45.894 15.6133 46.7606 14.64 47.9606 13.92C49.1606 13.1733 50.5473 12.8 52.1206 12.8C53.694 12.8 54.974 13.2667 55.9606 14.2C56.974 15.1067 57.494 16.2933 57.5206 17.76V30H53.7606V19.08C53.734 18.1733 53.4673 17.44 52.9606 16.88C52.4806 16.2933 51.7206 16 50.6806 16C49.7206 16 48.854 16.2667 48.0806 16.8C47.3073 17.3333 46.694 18.0667 46.2406 19C45.814 19.9333 45.6006 21.0133 45.6006 22.24V30H41.8806V13.44H45.2006ZM58.55 21.56C58.55 19.9067 58.9367 18.4133 59.71 17.08C60.51 15.7467 61.6033 14.6933 62.99 13.92C64.3767 13.1467 65.95 12.76 67.71 12.76C69.5233 12.76 71.11 13.1467 72.47 13.92C73.83 14.6933 74.8833 15.7467 75.63 17.08C76.3767 18.4133 76.75 19.9067 76.75 21.56C76.75 23.2133 76.3767 24.72 75.63 26.08C74.8833 27.4133 73.8167 28.4667 72.43 29.24C71.07 30.0133 69.4833 30.4 67.67 30.4C65.91 30.4 64.3367 30.04 62.95 29.32C61.59 28.5733 60.51 27.5467 59.71 26.24C58.9367 24.9067 58.55 23.3467 58.55 21.56ZM62.27 21.6C62.27 22.6667 62.51 23.64 62.99 24.52C63.47 25.3733 64.11 26.0533 64.91 26.56C65.7367 27.0667 66.6433 27.32 67.63 27.32C68.67 27.32 69.59 27.0667 70.39 26.56C71.2167 26.0533 71.8567 25.3733 72.31 24.52C72.7633 23.64 72.99 22.6667 72.99 21.6C72.99 20.5333 72.7633 19.5733 72.31 18.72C71.8567 17.84 71.2167 17.1467 70.39 16.64C69.59 16.1067 68.67 15.84 67.63 15.84C66.6167 15.84 65.6967 16.1067 64.87 16.64C64.07 17.1733 63.43 17.88 62.95 18.76C62.4967 19.6133 62.27 20.56 62.27 21.6Z" fill="#363032"/>
</svg>
